<svg xmlns="http://www.w3.org/2000/svg" version="1.1" xmlns:xlink="http://www.w3.org/1999/xlink" width="32" height="32" x="0" y="0" viewBox="0 0 100 100" style="enable-background:new 0 0 256 256" xml:space="preserve" class=""><g><path fill="#6bc9f7" d="M60.99 38.03a8.01 8.01 0 0 0-9.61-9.61l-15.04 3.49 3.49-15.04c1-4.3-1.68-8.6-5.98-9.6-4.3-.99-8.6 1.68-9.6 5.98l-6.4 27.54c-1.44 5.6 4 11.03 9.6 9.6l15.04-3.49-3.2 13.78 21.39-21.39.3-1.27z" opacity="1" data-original="#b0b4ff" class=""></path><path fill="#32639e" d="M72.55 49.59 57.5 53.08l3.2-13.77L39.31 60.7l-.29 1.26c-.62 2.69.18 5.51 2.13 7.47s4.78 2.76 7.46 2.14l15.05-3.49-3.49 15.05c-1.21 4.93 2.73 9.87 7.8 9.81 3.64 0 6.93-2.5 7.79-6.2l6.39-27.55c.62-2.69-.18-5.51-2.14-7.46a8.016 8.016 0 0 0-7.46-2.14z" opacity="1" data-original="#36d2d1" class=""></path></g></svg>